HIERARCHY
ROOT Hips
{
	OFFSET 0.000000 83.214638 0.000000
	CHANNELS 6 Xposition Yposition Zposition Xrotation Yrotation Zrotation
	JOINT Pelvis
	{
		OFFSET 0.000000 0.000000 0.000000
		CHANNELS 3 Xrotation Yrotation Zrotation
		JOINT LeftUpLeg
		{
			OFFSET 8.479700 -4.795502 -0.379100
			CHANNELS 3 Xrotation Yrotation Zrotation
			JOINT LeftLeg
			{
				OFFSET 0.024144 -32.555107 0.112900
				CHANNELS 3 Xrotation Yrotation Zrotation
				JOINT LeftFoot
				{
					OFFSET -0.024144 -32.638630 -3.012600
					CHANNELS 3 Xrotation Yrotation Zrotation
					JOINT LeftToeBase
					{
						OFFSET 0.970200 -13.225400 11.864200
						CHANNELS 3 Xrotation Yrotation Zrotation
						End Site
						{
							OFFSET 0.000000 12.319262 0.000000
						}
					}
					JOINT LFootTongue
					{
						OFFSET 1.142400 -1.059800 6.665200
						CHANNELS 3 Xrotation Yrotation Zrotation
						End Site
						{
							OFFSET 0.000000 12.319262 0.000000
						}
					}
				}
				JOINT LeftPantLeg
				{
					OFFSET 0.918482 -16.533964 -2.284700
					CHANNELS 3 Xrotation Yrotation Zrotation
					End Site
					{
						OFFSET 0.350399 24.744368 0.000000
					}
				}
			}
		}
		JOINT RightUpLeg
		{
			OFFSET -8.479700 -4.795502 -0.379100
			CHANNELS 3 Xrotation Yrotation Zrotation
			JOINT RightLeg
			{
				OFFSET -0.023144 -32.555092 0.112900
				CHANNELS 3 Xrotation Yrotation Zrotation
				JOINT RightFoot
				{
					OFFSET 0.023144 -32.638641 -3.012700
					CHANNELS 3 Xrotation Yrotation Zrotation
					JOINT RightToeBase
					{
						OFFSET -0.970200 -13.225400 11.864200
						CHANNELS 3 Xrotation Yrotation Zrotation
						End Site
						{
							OFFSET 0.000000 12.319244 0.000000
						}
					}
					JOINT RFootTongue
					{
						OFFSET -1.142200 -1.059800 6.665200
						CHANNELS 3 Xrotation Yrotation Zrotation
						End Site
						{
							OFFSET 0.000000 12.319243 0.000000
						}
					}
				}
				JOINT RightPantLeg
				{
					OFFSET -0.919482 -16.533978 -2.284800
					CHANNELS 3 Xrotation Yrotation Zrotation
					End Site
					{
						OFFSET -0.350400 24.744419 0.000000
					}
				}
			}
		}
	}
	JOINT Spine
	{
		OFFSET 0.000000 7.722000 1.166200
		CHANNELS 3 Xrotation Yrotation Zrotation
		JOINT Spine1
		{
			OFFSET 0.000000 12.024101 0.248800
			CHANNELS 3 Xrotation Yrotation Zrotation
			JOINT Spine2
			{
				OFFSET 0.000000 11.502998 -0.491200
				CHANNELS 3 Xrotation Yrotation Zrotation
				JOINT Neck
				{
					OFFSET 0.000000 18.430702 -3.123100
					CHANNELS 3 Xrotation Yrotation Zrotation
					JOINT Head
					{
						OFFSET 0.000000 9.051102 1.034000
						CHANNELS 3 Xrotation Yrotation Zrotation
						JOINT HairB
						{
							OFFSET 0.208400 24.786102 24.822300
							CHANNELS 3 Xrotation Yrotation Zrotation
							End Site
							{
								OFFSET 0.000000 32.263779 0.000000
							}
						}
						JOINT HairA
						{
							OFFSET -7.081100 24.428299 23.196600
							CHANNELS 3 Xrotation Yrotation Zrotation
							End Site
							{
								OFFSET 0.000000 32.263779 0.000000
							}
						}
						JOINT Hat
						{
							OFFSET 16.728800 15.048294 -15.439601
							CHANNELS 3 Xrotation Yrotation Zrotation
							End Site
							{
								OFFSET 0.000000 32.263779 0.000000
							}
						}
					}
				}
				JOINT LeftShoulder
				{
					OFFSET 6.197800 13.665199 -4.064700
					CHANNELS 3 Xrotation Yrotation Zrotation
					JOINT LeftArm
					{
						OFFSET 7.778100 -0.187103 -1.709300
						CHANNELS 3 Xrotation Yrotation Zrotation
						JOINT LeftForeArm
						{
							OFFSET 22.049376 0.000000 0.000000
							CHANNELS 3 Xrotation Yrotation Zrotation
							JOINT LeftHand
							{
								OFFSET 23.009392 0.000000 0.000000
								CHANNELS 3 Xrotation Yrotation Zrotation
								JOINT LeftHandThumb1
								{
									OFFSET 3.507191 -2.063065 3.133727
									CHANNELS 3 Xrotation Yrotation Zrotation
									JOINT LeftHandThumb2
									{
										OFFSET 3.101337 -1.790558 1.790558
										CHANNELS 3 Xrotation Yrotation Zrotation
										JOINT LeftHandThumb3
										{
											OFFSET 3.058640 -1.765907 1.765906
											CHANNELS 3 Xrotation Yrotation Zrotation
											End Site
											{
												OFFSET -0.415260 3.926476 -0.049563
											}
										}
									}
								}
								JOINT LeftHandIndex1
								{
									OFFSET 11.334419 -0.901459 3.706815
									CHANNELS 3 Xrotation Yrotation Zrotation
									JOINT LeftHandIndex2
									{
										OFFSET 3.283112 0.000000 0.000000
										CHANNELS 3 Xrotation Yrotation Zrotation
										JOINT LeftHandIndex3
										{
											OFFSET 3.323853 0.000000 0.000000
											CHANNELS 3 Xrotation Yrotation Zrotation
											End Site
											{
												OFFSET -1.135597 3.097809 0.402452
											}
										}
									}
								}
								JOINT LeftHandMiddle1
								{
									OFFSET 11.335861 0.000000 0.000000
									CHANNELS 3 Xrotation Yrotation Zrotation
									JOINT LeftHandMiddle2
									{
										OFFSET 3.410492 0.000000 0.000000
										CHANNELS 3 Xrotation Yrotation Zrotation
										JOINT LeftHandMiddle3
										{
											OFFSET 3.312172 0.000000 0.000000
											CHANNELS 3 Xrotation Yrotation Zrotation
											End Site
											{
												OFFSET -1.150200 3.080154 0.400270
											}
										}
									}
								}
								JOINT LeftHandRing1
								{
									OFFSET 11.514786 -0.013176 -3.003090
									CHANNELS 3 Xrotation Yrotation Zrotation
									JOINT LeftHandRing2
									{
										OFFSET 3.053307 0.000000 0.000000
										CHANNELS 3 Xrotation Yrotation Zrotation
										JOINT LeftHandRing3
										{
											OFFSET 3.295807 0.000000 0.000000
											CHANNELS 3 Xrotation Yrotation Zrotation
											End Site
											{
												OFFSET -1.281006 3.013344 0.375733
											}
										}
									}
								}
								JOINT LeftHandPinky1
								{
									OFFSET 10.518692 -0.960396 -5.730441
									CHANNELS 3 Xrotation Yrotation Zrotation
									JOINT LeftHandPinky2
									{
										OFFSET 2.861649 0.000000 0.000000
										CHANNELS 3 Xrotation Yrotation Zrotation
										JOINT LeftHandPinky3
										{
											OFFSET 2.863380 0.000000 0.000000
											CHANNELS 3 Xrotation Yrotation Zrotation
											End Site
											{
												OFFSET -0.843597 2.711159 0.369971
											}
										}
									}
								}
							}
							JOINT LSleeve
							{
								OFFSET 6.676277 -0.344902 -1.011730
								CHANNELS 3 Xrotation Yrotation Zrotation
								End Site
								{
									OFFSET 0.000000 14.885353 0.000000
								}
							}
						}
					}
				}
				JOINT RightShoulder
				{
					OFFSET -6.197800 13.665199 -4.064700
					CHANNELS 3 Xrotation Yrotation Zrotation
					JOINT RightArm
					{
						OFFSET -7.778100 -0.187103 -1.709300
						CHANNELS 3 Xrotation Yrotation Zrotation
						JOINT RightForeArm
						{
							OFFSET -22.049376 0.000000 0.000000
							CHANNELS 3 Xrotation Yrotation Zrotation
							JOINT RightHand
							{
								OFFSET -23.009392 0.000000 0.000000
								CHANNELS 3 Xrotation Yrotation Zrotation
								JOINT RightHandThumb1
								{
									OFFSET -3.507191 -2.063065 3.133727
									CHANNELS 3 Xrotation Yrotation Zrotation
									JOINT RightHandThumb2
									{
										OFFSET -3.101337 -1.790558 1.790558
										CHANNELS 3 Xrotation Yrotation Zrotation
										JOINT RightHandThumb3
										{
											OFFSET -3.058640 -1.765907 1.765906
											CHANNELS 3 Xrotation Yrotation Zrotation
											End Site
											{
												OFFSET 0.415260 3.926476 -0.049563
											}
										}
									}
								}
								JOINT RightHandIndex1
								{
									OFFSET -11.334419 -0.901459 3.706815
									CHANNELS 3 Xrotation Yrotation Zrotation
									JOINT RightHandIndex2
									{
										OFFSET -3.283112 0.000000 0.000000
										CHANNELS 3 Xrotation Yrotation Zrotation
										JOINT RightHandIndex3
										{
											OFFSET -3.323853 0.000000 0.000000
											CHANNELS 3 Xrotation Yrotation Zrotation
											End Site
											{
												OFFSET 1.135597 3.097809 0.402452
											}
										}
									}
								}
								JOINT RightHandMiddle1
								{
									OFFSET -11.335861 0.000000 0.000000
									CHANNELS 3 Xrotation Yrotation Zrotation
									JOINT RightHandMiddle2
									{
										OFFSET -3.410492 0.000000 0.000000
										CHANNELS 3 Xrotation Yrotation Zrotation
										JOINT RightHandMiddle3
										{
											OFFSET -3.312172 0.000000 0.000000
											CHANNELS 3 Xrotation Yrotation Zrotation
											End Site
											{
												OFFSET 1.150200 3.080154 0.400270
											}
										}
									}
								}
								JOINT RightHandRing1
								{
									OFFSET -11.514786 -0.013176 -3.003090
									CHANNELS 3 Xrotation Yrotation Zrotation
									JOINT RightHandRing2
									{
										OFFSET -3.053307 0.000000 0.000000
										CHANNELS 3 Xrotation Yrotation Zrotation
										JOINT RightHandRing3
										{
											OFFSET -3.295807 0.000000 0.000000
											CHANNELS 3 Xrotation Yrotation Zrotation
											End Site
											{
												OFFSET 1.281006 3.013344 0.375733
											}
										}
									}
								}
								JOINT RightHandPinky1
								{
									OFFSET -10.518692 -0.960396 -5.730441
									CHANNELS 3 Xrotation Yrotation Zrotation
									JOINT RightHandPinky2
									{
										OFFSET -2.861649 0.000000 0.000000
										CHANNELS 3 Xrotation Yrotation Zrotation
										JOINT RightHandPinky3
										{
											OFFSET -2.863380 0.000000 0.000000
											CHANNELS 3 Xrotation Yrotation Zrotation
											End Site
											{
												OFFSET 0.843597 2.711159 0.369971
											}
										}
									}
								}
							}
							JOINT RSleeve
							{
								OFFSET -6.676277 -0.344902 -1.011730
								CHANNELS 3 Xrotation Yrotation Zrotation
								End Site
								{
									OFFSET 0.000000 14.885353 0.000000
								}
							}
						}
					}
				}
				JOINT Backpack
				{
					OFFSET 0.000000 -2.471497 36.677502
					CHANNELS 3 Xrotation Yrotation Zrotation
					End Site
					{
						OFFSET 0.000000 20.427315 0.000000
					}
				}
				JOINT Hood
				{
					OFFSET 0.000000 18.754097 -10.431000
					CHANNELS 3 Xrotation Yrotation Zrotation
					JOINT Hood1
					{
						OFFSET 0.000000 -5.011002 -7.685901
						CHANNELS 3 Xrotation Yrotation Zrotation
						End Site
						{
							OFFSET 0.000000 9.175140 0.000000
						}
					}
				}
				JOINT LHoodieString
				{
					OFFSET 5.250500 16.397697 3.089900
					CHANNELS 3 Xrotation Yrotation Zrotation
					JOINT LHoodieString1
					{
						OFFSET 0.257700 -6.364304 3.694600
						CHANNELS 3 Xrotation Yrotation Zrotation
						JOINT LHoodieString2
						{
							OFFSET 0.000000 -9.643799 2.679100
							CHANNELS 3 Xrotation Yrotation Zrotation
							End Site
							{
								OFFSET 0.000000 10.009018 0.000000
							}
						}
					}
				}
				JOINT RHoodieString
				{
					OFFSET -5.250500 16.397697 3.089900
					CHANNELS 3 Xrotation Yrotation Zrotation
					JOINT RHoodieString1
					{
						OFFSET -0.257700 -6.364304 3.694600
						CHANNELS 3 Xrotation Yrotation Zrotation
						JOINT RHoodieString2
						{
							OFFSET 0.000000 -9.643799 2.679100
							CHANNELS 3 Xrotation Yrotation Zrotation
							End Site
							{
								OFFSET 0.000000 10.009018 0.000000
							}
						}
					}
				}
			}
			JOINT LBackpack_Strap
			{
				OFFSET 15.223200 -7.719803 -6.610900
				CHANNELS 3 Xrotation Yrotation Zrotation
				End Site
				{
					OFFSET 0.000000 16.040596 0.000000
				}
			}
			JOINT RBackpack_Strap
			{
				OFFSET -15.223000 -7.719803 -6.610900
				CHANNELS 3 Xrotation Yrotation Zrotation
				End Site
				{
					OFFSET 0.000000 16.040596 0.000000
				}
			}
		}
	}
	JOINT BoyFacialAnim_Joint
	{
		OFFSET 1.000000 -82.208099 -1.550900
		CHANNELS 3 Xrotation Yrotation Zrotation
		End Site
		{
			OFFSET 0.000000 30.012791 0.000000
		}
	}
}
MOTION
Frames: 4
Frame Time: 0.033333
2.243630 95.803375 75.876923 -28.967560 35.365292 -6.803500 0.000001 -0.000001 0.000000 -5.500022 17.342113 24.782933 11.045281 8.879968 0.867687 55.980241 0.866942 -9.926560 0.000001 -0.000001 0.000000 0.000001 -0.000001 -0.000000 -0.000001 -0.000001 -0.000000 -79.715636 19.167869 -36.657998 10.683403 9.200474 0.914621 35.344132 14.443217 12.773837 -0.000000 0.000001 0.000000 -0.000000 0.000001 0.000000 0.000000 0.000003 0.000001 6.402332 -3.162111 5.177028 13.473842 -2.670234 6.778202 13.499789 -2.620278 6.740630 9.648178 -2.576348 6.342664 13.139316 -7.230741 4.932791 -0.000000 0.000001 -0.000000 -0.000000 0.000001 -0.000000 -0.000000 0.000001 -0.000000 1.741194 -9.561783 0.025945 -49.191979 -25.383285 -61.177670 0.000052 -59.954533 0.000034 36.068545 7.096145 13.523509 3.241012 7.097992 13.847247 3.939061 7.948707 0.746826 0.000000 0.000002 -0.000004 0.141241 1.390226 -11.601207 0.186487 1.594779 -13.338435 -0.000001 0.000000 -0.000002 0.191669 1.616467 -13.523333 0.234308 1.784359 -14.959967 -0.000001 -0.000002 0.000002 0.318271 2.073040 -17.454096 0.321099 2.082049 -17.532723 -0.000000 -0.000002 0.000003 2.254666 6.530371 -23.757372 0.389501 -1.776591 -19.756054 -0.000001 -0.000000 0.000001 0.000002 0.000000 0.000000 -0.041118 -2.806552 -2.041657 -73.968900 17.316514 27.749848 0.000007 45.422913 -0.000001 -22.741975 18.803793 -10.755463 -4.576662 -15.723826 -11.540942 4.637203 -8.634127 -0.225409 -0.000001 -0.000002 0.000001 0.156325 -1.469054 12.147917 0.083837 -1.078645 8.887615 -0.000001 -0.000003 0.000003 0.155046 -1.463072 12.097665 0.101159 -1.184141 9.765291 0.000000 0.000000 -0.000000 0.200625 -1.661491 13.769615 0.112899 -1.250428 10.317886 -0.000003 -0.000001 0.000004 0.323044 -2.098673 17.499397 0.098850 -1.170665 9.653043 -0.000004 0.000000 -0.000001 0.000002 0.000002 -0.000007 -0.000000 0.000000 -0.000000 -0.000000 0.000000 -0.000000 -0.000000 0.000000 -0.000000 -0.000000 0.000000 -0.000000 -0.000000 0.000000 -0.000000 -0.000000 0.000000 -0.000000 -0.000000 0.000000 -0.000000 -0.000000 0.000000 -0.000000 -0.000000 0.000000 -0.000000 -0.000000 -0.000000 -0.000000 -0.000000 -0.000000 -0.000000 0.000001 -0.000001 0.000000 
1.997432 92.601410 78.318909 -28.638932 35.725919 -9.569616 -0.000002 0.000000 -0.000000 -5.152370 20.147743 28.150845 8.801034 10.945598 0.945805 52.374806 3.228620 -9.160619 -0.000003 0.000000 -0.000002 -0.000003 0.000000 -0.000002 -0.000000 -0.000002 -0.000000 -81.088422 16.526596 -33.644241 18.674374 8.949348 0.727482 37.663470 13.105234 17.152383 0.000000 0.000002 0.000000 0.000000 0.000002 0.000000 -0.000000 0.000001 0.000001 6.200014 -1.977689 4.883632 12.484694 -2.759957 7.749613 12.507760 -2.719761 7.721386 10.688098 -2.646780 6.775084 13.874841 -7.786869 6.034179 -0.000002 0.000001 -0.000001 -0.000002 0.000001 -0.000001 -0.000002 0.000001 -0.000001 1.411598 -7.667568 0.786416 -54.220337 -30.823800 -63.077582 0.000044 -66.976951 0.000048 22.983803 3.811517 11.866841 3.241016 7.097993 13.847253 3.939063 7.948708 0.746824 0.000001 -0.000000 0.000000 0.141239 1.390226 -11.601204 0.186486 1.594777 -13.338426 0.000001 -0.000003 -0.000001 0.191670 1.616465 -13.523335 0.234307 1.784364 -14.959967 0.000005 -0.000001 0.000002 0.318270 2.073039 -17.454091 0.321097 2.082050 -17.532730 0.000001 0.000001 -0.000004 2.254666 6.530368 -23.757372 0.389497 -1.776592 -19.756054 0.000000 0.000002 -0.000002 -0.000000 -0.000000 0.000000 -0.109379 -3.474566 -1.889602 -76.119494 16.378807 25.462044 0.000000 50.780810 -0.000005 -25.544907 21.525570 -6.969412 -4.576665 -15.723831 -11.540942 4.637202 -8.634122 -0.225410 -0.000001 0.000004 0.000001 0.156324 -1.469056 12.147917 0.083835 -1.078647 8.887614 0.000000 -0.000000 0.000002 0.155040 -1.463071 12.097668 0.101163 -1.184143 9.765295 0.000006 -0.000002 -0.000002 0.200625 -1.661493 13.769620 0.112899 -1.250428 10.317890 -0.000001 -0.000002 0.000002 0.323051 -2.098676 17.499402 0.098854 -1.170661 9.653039 0.000003 0.000001 -0.000001 0.000001 0.000001 -0.000002 -0.000000 -0.000001 -0.000000 -0.000000 -0.000001 -0.000000 -0.000000 -0.000001 -0.000000 -0.000000 -0.000001 -0.000000 -0.000000 -0.000001 0.000000 -0.000000 -0.000003 0.000001 -0.000000 -0.000001 -0.000000 -0.000000 -0.000001 0.000000 -0.000000 -0.000003 0.000001 -0.000000 0.000000 -0.000000 -0.000000 0.000000 -0.000000 -0.000002 0.000000 -0.000000 
1.498292 89.963432 82.721771 -30.566729 37.487497 -11.402200 0.000001 -0.000002 -0.000000 -6.057623 22.587741 32.648342 10.462212 6.777493 0.373282 42.631145 0.489843 -2.629789 -0.000001 -0.000001 -0.000000 -0.000001 -0.000001 -0.000000 0.000000 0.000001 0.000000 -81.305875 11.806985 -30.526858 36.930536 8.730271 0.626464 38.644712 13.709005 22.378773 -0.000003 0.000001 0.000001 -0.000003 0.000001 0.000001 0.000000 0.000001 0.000000 6.069675 -1.751343 4.235610 11.836095 -3.041753 8.653024 11.836750 -3.038494 8.652464 10.987311 -2.523231 6.676859 13.611116 -7.626877 6.577014 -0.000003 0.000001 -0.000001 -0.000003 0.000001 -0.000001 -0.000003 0.000001 -0.000001 1.105036 -5.568485 1.109740 -53.233951 -33.932079 -64.288889 0.000053 -74.420730 0.000048 4.832626 2.182839 5.604297 3.241015 7.097990 13.847256 3.939060 7.948706 0.746822 0.000003 -0.000002 0.000002 0.141240 1.390227 -11.601211 0.186485 1.594775 -13.338429 -0.000000 0.000001 -0.000005 0.191668 1.616465 -13.523339 0.234302 1.784360 -14.959962 -0.000002 -0.000002 -0.000004 0.318272 2.073040 -17.454099 0.321105 2.082048 -17.532728 0.000002 -0.000001 -0.000001 2.254667 6.530369 -23.757375 0.389502 -1.776592 -19.756051 -0.000001 0.000000 -0.000000 -0.000000 0.000001 -0.000001 -0.184242 -4.214207 -1.695047 -74.284625 14.370505 24.308384 0.000050 60.622157 -0.000056 -19.961101 14.708321 -6.796777 -4.576670 -15.723828 -11.540946 4.637197 -8.634125 -0.225407 -0.000003 0.000000 -0.000001 0.156324 -1.469055 12.147919 0.083830 -1.078649 8.887616 0.000004 -0.000002 0.000003 0.155041 -1.463070 12.097665 0.101159 -1.184140 9.765292 0.000000 -0.000000 0.000001 0.200626 -1.661491 13.769621 0.112902 -1.250430 10.317890 -0.000001 0.000000 0.000002 0.323037 -2.098673 17.499399 0.098855 -1.170661 9.653044 0.000003 -0.000000 0.000004 -0.000003 -0.000001 -0.000001 0.000000 -0.000001 0.000000 0.000000 -0.000001 0.000000 0.000000 -0.000001 0.000000 0.000000 -0.000001 0.000000 0.000000 -0.000001 0.000000 0.000000 -0.000002 0.000001 0.000000 -0.000001 0.000000 0.000000 -0.000001 0.000000 0.000000 -0.000002 0.000001 -0.000000 0.000003 0.000000 -0.000000 0.000003 0.000000 0.000001 -0.000002 -0.000000 
1.079891 86.977737 87.316132 -32.332227 38.801301 -11.789214 0.000000 0.000001 -0.000003 -11.267604 21.183089 35.122113 26.299268 2.468570 -0.012253 18.582681 1.566480 7.834524 -0.000002 -0.000000 -0.000001 -0.000002 -0.000000 -0.000000 0.000000 -0.000001 -0.000000 -77.927855 6.236553 -27.301029 49.589690 8.615839 0.694819 40.956802 16.319325 21.826390 -0.000002 -0.000000 0.000001 -0.000002 -0.000000 0.000001 0.000000 0.000000 0.000000 5.797925 -1.962009 3.149561 11.337344 -3.118689 8.724548 11.322507 -3.138851 8.738809 9.844867 -2.299260 6.442434 11.940812 -6.407332 6.284970 0.000000 -0.000001 0.000000 0.000000 -0.000001 0.000000 0.000000 -0.000001 0.000000 0.770756 -3.117797 1.305596 -48.445186 -35.504706 -64.011508 0.000175 -82.430329 0.000214 -2.268333 2.565720 1.359986 3.241017 7.097991 13.847251 3.939067 7.948704 0.746824 0.000002 0.000002 -0.000004 0.141242 1.390222 -11.601206 0.186488 1.594781 -13.338431 -0.000001 -0.000001 -0.000005 0.191667 1.616467 -13.523336 0.234302 1.784357 -14.959967 0.000003 -0.000003 -0.000000 0.318274 2.073037 -17.454099 0.321100 2.082048 -17.532730 0.000001 0.000001 -0.000000 2.254667 6.530366 -23.757370 0.389499 -1.776598 -19.756056 0.000001 0.000000 0.000003 0.000002 0.000001 -0.000001 -0.299404 -5.247017 -1.618683 -68.655873 10.982249 24.817834 0.000096 74.644665 -0.000082 -11.894044 5.440014 -10.097034 -4.576666 -15.723835 -11.540942 4.637209 -8.634124 -0.225409 -0.000002 -0.000001 -0.000000 0.156327 -1.469057 12.147922 0.083832 -1.078647 8.887615 -0.000003 0.000000 0.000002 0.155043 -1.463071 12.097669 0.101164 -1.184142 9.765295 0.000003 -0.000002 0.000003 0.200624 -1.661492 13.769617 0.112900 -1.250433 10.317887 0.000005 -0.000002 -0.000000 0.323041 -2.098674 17.499399 0.098859 -1.170663 9.653042 0.000001 0.000001 0.000002 0.000002 -0.000001 -0.000001 -0.000000 -0.000002 -0.000000 -0.000000 -0.000002 -0.000000 -0.000000 -0.000002 -0.000000 -0.000000 -0.000002 -0.000000 -0.000000 -0.000002 0.000001 -0.000001 -0.000002 -0.000000 -0.000000 -0.000002 -0.000000 -0.000000 -0.000002 0.000001 -0.000001 -0.000002 -0.000000 -0.000001 0.000000 -0.000002 -0.000001 0.000000 -0.000002 0.000000 0.000001 -0.000003 
